<svg width="36" height="34" viewBox="0 0 36 34" fill="none" xmlns="http://www.w3.org/2000/svg">
<g filter="url(#filter0_d_1_279)">
<path d="M24.3 0C21.864 0 19.526 1.134 18 2.926C16.474 1.134 14.136 0 11.7 0C7.388 0 4 3.388 4 7.7C4 12.992 8.76 17.304 15.97 23.856L18 25.69L20.03 23.842C27.24 17.304 32 12.992 32 7.7C32 3.388 28.612 0 24.3 0ZM18.14 21.77L18 21.91L17.86 21.77C11.196 15.736 6.8 11.746 6.8 7.7C6.8 4.9 8.9 2.8 11.7 2.8C13.856 2.8 15.956 4.186 16.698 6.104H19.316C20.044 4.186 22.144 2.8 24.3 2.8C27.1 2.8 29.2 4.9 29.2 7.7C29.2 11.746 24.804 15.736 18.14 21.77Z" fill="#76607A"/>
</g>
<defs>
<filter id="filter0_d_1_279" x="0" y="0" width="36" height="33.6899" filterUnits="userSpaceOnUse" color-interpolation-filters="sRGB">
<feFlood flood-opacity="0" result="BackgroundImageFix"/>
<feColorMatrix in="SourceAlpha" type="matrix" values="0 0 0 0 0 0 0 0 0 0 0 0 0 0 0 0 0 0 127 0" result="hardAlpha"/>
<feOffset dy="4"/>
<feGaussianBlur stdDeviation="2"/>
<feComposite in2="hardAlpha" operator="out"/>
<feColorMatrix type="matrix" values="0 0 0 0 0 0 0 0 0 0 0 0 0 0 0 0 0 0 0.25 0"/>
<feBlend mode="normal" in2="BackgroundImageFix" result="effect1_dropShadow_1_279"/>
<feBlend mode="normal" in="SourceGraphic" in2="effect1_dropShadow_1_279" result="shape"/>
</filter>
</defs>
</svg>
